<?xml version="1.0" encoding="utf-8"?>
<!-- Generator: Adobe Illustrator 19.1.0, SVG Export Plug-In . SVG Version: 6.00 Build 0)  -->
<svg version="1.1" id="Layer_1" xmlns="http://www.w3.org/2000/svg" xmlns:xlink="http://www.w3.org/1999/xlink" x="0px" y="0px"
	 viewBox="-460 251 55 55" style="enable-background:new -460 251 55 55;" xml:space="preserve">
<style type="text/css">
	.st0_cart{fill:currentColor;}
	.st1_cart{fill:none;}
</style>
<path class="st0_cart" d="M-441,293c-2.2,0-4,1.8-4,4s1.8,4,4,4s4-1.8,4-4S-438.8,293-441,293z M-453,261v4h4l7.2,15.2l-2.7,4.9
	c-0.3,0.6-0.5,1.2-0.5,1.9c0,2.2,1.8,4,4,4h24v-4h-23.2c-0.3,0-0.5-0.2-0.5-0.5l0.1-0.2l1.8-3.3h14.9c1.5,0,2.8-0.8,3.5-2.1l7.2-13
	c0.2-0.3,0.2-0.6,0.2-1c0-1.1-0.9-2-2-2h-29.6l-1.9-4C-446.5,261-453,261-453,261z M-421,293c-2.2,0-4,1.8-4,4s1.8,4,4,4s4-1.8,4-4
	S-418.8,293-421,293z"/>
<path class="st1_cart" d="M-455,257h48v48h-48V257z"/>
</svg>
