<?xml version="1.0" encoding="utf-8"?>
<!-- Generator: Adobe Illustrator 19.1.0, SVG Export Plug-In . SVG Version: 6.00 Build 0)  -->
<svg version="1.1" id="Layer_1" xmlns="http://www.w3.org/2000/svg" xmlns:xlink="http://www.w3.org/1999/xlink" x="0px" y="0px"
	 viewBox="-455 257 48 48" style="enable-background:new -455 257 48 48;" xml:space="preserve">
<style type="text/css">
	.st0_bus{fill:none;}
	.st1_bus{fill:currentColor;}
</style>
<path class="st0_bus" d="M-455,257h48v48h-48V257z"/>
<path class="st1_bus" d="M-447,289c0,1.8,0.8,3.3,2,4.4v3.6c0,1.1,0.9,2,2,2h2c1.1,0,2-0.9,2-2v-2h16v2c0,1.1,0.9,2,2,2h2
	c1.1,0,2-0.9,2-2v-3.6c1.2-1.1,2-2.7,2-4.4v-20c0-7-7.2-8-16-8s-16,1-16,8V289z M-440,291c-1.7,0-3-1.3-3-3s1.3-3,3-3s3,1.3,3,3
	S-438.3,291-440,291z M-422,291c-1.7,0-3-1.3-3-3s1.3-3,3-3s3,1.3,3,3S-420.3,291-422,291z M-419,279h-24v-10h24V279z"/>
</svg>
