<?xml version="1.0" encoding="utf-8"?>
<!-- Generator: Adobe Illustrator 19.1.0, SVG Export Plug-In . SVG Version: 6.00 Build 0)  -->
<svg version="1.1" id="Layer_1" xmlns="http://www.w3.org/2000/svg" xmlns:xlink="http://www.w3.org/1999/xlink" x="0px" y="0px"
	 viewBox="-455 257 48 48" style="enable-background:new -455 257 48 48;" xml:space="preserve">
<style type="text/css">
	.st0_car{fill:currentColor;}
	.st1_car{fill:none;}
</style>
<path class="st0_car" d="M-417.2,269c-0.4-1.2-1.5-2-2.8-2h-22c-1.3,0-2.4,0.8-2.8,2l-4.2,12v16c0,1.1,0.9,2,2,2h2c1.1,0,2-0.9,2-2v-2
	h24v2c0,1.1,0.9,2,2,2h2c1.1,0,2-0.9,2-2v-16L-417.2,269z M-442,289c-1.7,0-3-1.3-3-3s1.3-3,3-3s3,1.3,3,3S-440.3,289-442,289z
	 M-420,289c-1.7,0-3-1.3-3-3s1.3-3,3-3s3,1.3,3,3S-418.3,289-420,289z M-445,279l3-9h22l3,9H-445z"/>
<path class="st1_car" d="M-455,257h48v48h-48V257z"/>
</svg>
