<?xml version="1.0" encoding="utf-8"?>
<!-- Generator: Adobe Illustrator 19.1.0, SVG Export Plug-In . SVG Version: 6.00 Build 0)  -->
<svg version="1.1" id="Layer_1" xmlns="http://www.w3.org/2000/svg" xmlns:xlink="http://www.w3.org/1999/xlink" x="0px" y="0px"
	 viewBox="-455 257 48 48" style="enable-background:new -455 257 48 48;" xml:space="preserve">
<style type="text/css">
	.st0{fill:none;}
	.st1{fill:#9098D3;}
</style>
<path class="st0" d="M-455,257h48v48h-48V257z"/>
<path class="st1" d="M-424,268c2.2,0,4-1.8,4-4s-1.8-4-4-4s-4,1.8-4,4S-426.2,268-424,268z M-445,281c-5.6,0-10,4.4-10,10
	s4.4,10,10,10s10-4.4,10-10S-439.4,281-445,281z M-445,298c-3.8,0-7-3.2-7-7s3.2-7,7-7s7,3.2,7,7S-441.2,298-445,298z M-433.4,278
	l4.8-4.8l1.6,1.6c2.6,2.6,6,4.2,10.2,4.2v-4c-3,0-5.4-1.2-7.2-3l-3.8-3.8c-1-0.8-2-1.2-3.2-1.2s-2.2,0.4-2.8,1.2l-5.6,5.6
	c-0.8,0.8-1.2,1.8-1.2,2.8c0,1.2,0.4,2.2,1.2,2.8l6.4,5.6v10h4v-12.4L-433.4,278z M-417,281c-5.6,0-10,4.4-10,10s4.4,10,10,10
	s10-4.4,10-10S-411.4,281-417,281z M-417,298c-3.8,0-7-3.2-7-7s3.2-7,7-7s7,3.2,7,7S-413.2,298-417,298z"/>
</svg>
