<?xml version="1.0" encoding="utf-8"?>
<!-- Generator: Adobe Illustrator 19.1.0, SVG Export Plug-In . SVG Version: 6.00 Build 0)  -->
<svg version="1.1" id="Layer_1" xmlns="http://www.w3.org/2000/svg" xmlns:xlink="http://www.w3.org/1999/xlink" x="0px" y="0px"
	 viewBox="0 0 100 100" style="enable-background:new 0 0 100 100;" xml:space="preserve">
<style type="text/css">
	.st1_coins{fill:currentColor;}
</style>
<g>
	<g>
		<path class="st1_coins" d="M101,12c-16.8,9.9-34.1,9-51.7,2.7c-1.9-0.7-4.3-1.8-4.1-4.4c0.2-2.4,2.4-3.5,4.4-4.4C55.1,3.4,61,2.4,67,1.9
			c3.8-0.7,7.6-0.2,11.3-0.4c6,0.2,12.1,0.2,17.7,3c2.1,1.1,3.9,2.3,5,4.5C101,10,101,11,101,12z"/>
		<path class="st1_coins" d="M1,46c4.5-4,10.1-5.7,15.9-6.4c10.9-1.3,21.9-1.6,32.5,2c1.4,0.5,2.8,1,4.1,1.8c4.6,2.8,4.6,5.5-0.3,7.8
			c-10.4,5.1-21.5,5.4-32.7,4.3C13.6,54.9,6.8,53.3,1,49C1,48,1,47,1,46z"/>
		<path class="st1_coins" d="M1,54c18.4,8.4,36.9,7.8,55.5,0.6c1.3,9.4,0.4,11.5-8.4,13.8C32,72.5,16,72.9,1,64C1,60.7,1,57.3,1,54z"/>
		<path class="st1_coins" d="M101,27c-11.8,8.2-25.1,7.5-38.5,6.5c-2.8-0.2-5.6-0.9-8.3-1.7c-8.9-2.5-10.1-4.5-8.8-14
			c18.6,6.9,37.2,8,55.6-0.8C101,20.3,101,23.7,101,27z"/>
		<path class="st1_coins" d="M1,84c18.4,8.2,36.9,7.8,55.4,0.5c1.7,8.9,0.4,10.9-8.1,13.8c-3.1,1-6.5,0.8-9.3,2.7c-1.3,0-2.7,0-4,0
			c-4.3-0.8-8.7-0.8-13,0c-1.3,0-2.7,0-4,0c-3.7-1.3-7.9-1-11.6-2.7C3.9,97.2,1.8,95.9,1,93C1,90,1,87,1,84z"/>
		<path class="st1_coins" d="M101,42c-11.4,8.2-24.5,7.3-37.4,6.7c-1,0-2.1-0.4-2.4-1.5c-1.6-6.9-7.5-8.4-13-10.2
			c-2.5-0.8-3.9-1.7-2.8-4.3c18.7,7,37.2,8.1,55.6-0.8C101,35.3,101,38.7,101,42z"/>
		<path class="st1_coins" d="M101,57c-11.4,8.2-24.4,7.4-37.3,6.7c-4.2-0.2-2.2-4-2.7-6.3c-0.7-3.7,0.5-4.9,4.7-4.6
			c12.2,0.9,24.2,0.4,35.3-5.8C101,50.3,101,53.7,101,57z"/>
		<path class="st1_coins" d="M101,72c-11.4,8.3-24.4,7.4-37.3,6.7c-4.3-0.2-2.2-4-2.7-6.3c-0.7-3.7,0.5-4.9,4.7-4.6
			c12.2,0.9,24.2,0.4,35.3-5.8C101,65.3,101,68.7,101,72z"/>
		<path class="st1_coins" d="M1,69c0.8,0,1.6,0.2,2.1,0.9c0.2,3.1,1.1,6.2-1,9c-0.3,0-0.7,0-1,0C1,75.7,1,72.3,1,69z"/>
		<path class="st1_coins" d="M2,79c0.4-3-1.1-6.2,1-9c17.8,7.2,35.5,6.7,53.2-0.3c2,8.5,0.7,11-7.4,13.5c-13.2,4-26.4,4-39.7,0
			C6.5,82.3,4,81.1,2,79z"/>
	</g>
</g>
</svg>
