<?xml version="1.0" encoding="utf-8"?>
<!-- Generator: Adobe Illustrator 19.1.0, SVG Export Plug-In . SVG Version: 6.00 Build 0)  -->
<svg version="1.1" id="Layer_1" xmlns="http://www.w3.org/2000/svg" xmlns:xlink="http://www.w3.org/1999/xlink" x="0px" y="0px"
	 viewBox="-455 257 48 48" style="enable-background:new -455 257 48 48;" xml:space="preserve">
<style type="text/css">
	.st0{fill:none;}
	.st1{fill:#9098D3;}
</style>
<path class="st0" d="M-455,257h48v48h-48V257z"/>
<path class="st1" d="M-430,270.8c3.6,0,4.9,1.7,5,4.2h4.4c-0.1-3.4-2.2-6.6-6.4-7.6V263h-6v4.3c-1.1,0.2-2.1,0.6-3,1.1l2.9,2.9
	C-432.2,271-431.2,270.8-430,270.8z M-444.3,265.1l-2.5,2.5l6.9,6.9c0,4.2,3.1,6.4,7.8,7.8l7,7c-0.7,1-2.1,1.8-4.8,1.8
	c-4.1,0-5.7-1.8-6-4.2h-4.4c0.2,4.4,3.5,6.8,7.4,7.7v4.3h6v-4.3c1.9-0.4,3.6-1.1,4.9-2.2l4.4,4.4l2.5-2.5L-444.3,265.1z"/>
</svg>
