<?xml version="1.0" encoding="utf-8"?>
<!-- Generator: Adobe Illustrator 19.1.0, SVG Export Plug-In . SVG Version: 6.00 Build 0)  -->
<svg version="1.1" id="Layer_1" xmlns="http://www.w3.org/2000/svg" xmlns:xlink="http://www.w3.org/1999/xlink" x="0px" y="0px"
	 viewBox="0 0 100 100" style="enable-background:new 0 0 100 100;" xml:space="preserve">
<style type="text/css">
	.st0{fill:#FEFEFE;}
	.st1{fill:#9098D2;}
	.st2{fill:#FBFBFD;}
	.st3{fill:#AAB0DD;}
	.st4{fill:#E4E6F3;}
	.st5{fill:#AEB4DF;}
</style>
<g>
	<g>
		<path class="st0" d="M101,12c0,1.7,0,3.3,0,5c-1.7,3.1-4.8,4-7.8,4.8C79.1,25.7,65,25.6,51,21.2c-1.3-0.4-3-2-4-0.4
			c-1.2,1.7-0.6,3.9,0.7,5.6c1.6,2.1,4,3.1,6.3,3.7c14.3,3.7,28.5,4.2,42.4-1.9c1.5-0.6,2.8-1.9,4.6-1.2c0,1.7,0,3.3,0,5
			c-2,3.4-5.5,4.2-8.8,5c-14.8,3.8-29.5,3.4-44-1.6c5.8,2.2,11.4,4.4,14.5,10.5c1,2,3.5,1.7,5.4,1.7c10.5,0.3,21,0.1,30.5-5.4
			c0.7-0.4,1.6-0.6,2.4-0.2c0,1.7,0,3.3,0,5c-1.7,3.1-4.8,3.9-7.8,4.9c-8.3,2.8-17,2.7-25.6,2.6c-2.4,0-5.2-0.8-5.2,3.3
			c0,3.7,1.9,4.8,5.3,4.9c10.5,0.2,21,0.2,30.5-5.2c0.9-0.5,1.8-0.8,2.9-0.4c0,1.7,0,3.3,0,5c-1.7,3.1-4.8,3.9-7.8,4.9
			c-8.3,2.8-17,2.7-25.6,2.6c-2.4,0-5.2-0.8-5.2,3.3c0,3.7,1.9,4.8,5.3,4.9c10.5,0.2,21,0.2,30.5-5.2c0.9-0.5,1.8-0.8,2.9-0.4
			c0,8.7-0.1,17.3,0.1,26c0.1,2.5-0.6,3.1-3.1,3.1c-19.7-0.1-39.3-0.1-59-0.1c0.2-2.6,2.5-2.2,4.1-2.7c2.7-0.8,5.5-1.3,8-2.6
			c1.5-0.8,2.9-1.6,3.7-3.2c0.8-1.5,1.3-3.3,0.3-4.8c-1.1-1.7-2.7-0.3-4,0.1c-14.5,4.6-29,4.8-43.5,0.2c-2.6-0.8-5-1.8-6.6-4.1
			c0-1.7,0-3.3,0-5c0.5-0.3,1-0.5,1.5-0.4c14.4,7.3,29.4,7.4,44.6,3.6c2.6-0.7,5.2-1.5,7-3.5c1.4-1.6,2-3.7,1.1-5.6
			c-1-2.2-2.9-0.5-4.3-0.1c-11.6,3.7-23.4,4.5-35.4,2.2c-4.2-0.8-8.5-1.8-12.3-3.9C2.3,70.7,1.8,69.7,1,69c0-1.7,0-3.3,0-5
			c1.6-0.7,2.9,0.2,4.2,0.8c14.6,6.5,29.4,6.1,44.4,1.6c2.2-0.7,4.4-1.7,5.4-4.1c0.6-1.5,1.2-3.4,0-4.7c-1-1.2-2.5-0.1-3.7,0.3
			c-8.1,2.7-16.5,3.8-25.1,3.5c-7-0.3-13.9-1.6-20.5-3.9C3.7,56.8,2,55.9,1,54c0-1.7,0-3.3,0-5c1.2-0.5,2.3,0.1,3.3,0.6
			C18.4,56,32.9,56,47.6,52c2.8-0.7,6.8-1.2,6.8-4.8c-0.1-3.4-4.1-4.1-6.9-4.7C32.7,39.3,18,38.2,3.8,45.5c-0.9,0.5-1.8,1-2.8,0.5
			C1,32,1.1,18,0.9,4c0-2.5,0.6-3.1,3.1-3.1C25,1,46,1,67,1c0.3,0.5,0.3,1-0.2,1.4c-1.9,1.2-4.1,1.3-6.2,1.7c-2.6,0.6-5.2,1-7.7,1.9
			c-2.3,0.8-5.4,1.4-5.4,4.4c0,2.7,2.9,3.4,5.1,4.1c14.7,4.8,29.3,4.8,43.8-1.2C97.9,12.7,99.2,11.4,101,12z"/>
		<path class="st1" d="M101,12c-16.8,9.9-34.1,9-51.7,2.7c-1.9-0.7-4.3-1.8-4.1-4.4c0.2-2.4,2.4-3.5,4.4-4.4C55.1,3.4,61,2.4,67,1.9
			c3.8-0.7,7.6-0.2,11.3-0.4c6,0.2,12.1,0.2,17.7,3c2.1,1.1,3.9,2.3,5,4.5C101,10,101,11,101,12z"/>
		<path class="st1" d="M1,46c4.5-4,10.1-5.7,15.9-6.4c10.9-1.3,21.9-1.6,32.5,2c1.4,0.5,2.8,1,4.1,1.8c4.6,2.8,4.6,5.5-0.3,7.8
			c-10.4,5.1-21.5,5.4-32.7,4.3C13.6,54.9,6.8,53.3,1,49C1,48,1,47,1,46z"/>
		<path class="st1" d="M1,54c18.4,8.4,36.9,7.8,55.5,0.6c1.3,9.4,0.4,11.5-8.4,13.8C32,72.5,16,72.9,1,64C1,60.7,1,57.3,1,54z"/>
		<path class="st1" d="M101,27c-11.8,8.2-25.1,7.5-38.5,6.5c-2.8-0.2-5.6-0.9-8.3-1.7c-8.9-2.5-10.1-4.5-8.8-14
			c18.6,6.9,37.2,8,55.6-0.8C101,20.3,101,23.7,101,27z"/>
		<path class="st1" d="M1,84c18.4,8.2,36.9,7.8,55.4,0.5c1.7,8.9,0.4,10.9-8.1,13.8c-3.1,1-6.5,0.8-9.3,2.7c-1.3,0-2.7,0-4,0
			c-4.3-0.8-8.7-0.8-13,0c-1.3,0-2.7,0-4,0c-3.7-1.3-7.9-1-11.6-2.7C3.9,97.2,1.8,95.9,1,93C1,90,1,87,1,84z"/>
		<path class="st1" d="M101,42c-11.4,8.2-24.5,7.3-37.4,6.7c-1,0-2.1-0.4-2.4-1.5c-1.6-6.9-7.5-8.4-13-10.2
			c-2.5-0.8-3.9-1.7-2.8-4.3c18.7,7,37.2,8.1,55.6-0.8C101,35.3,101,38.7,101,42z"/>
		<path class="st1" d="M101,57c-11.4,8.2-24.4,7.4-37.3,6.7c-4.2-0.2-2.2-4-2.7-6.3c-0.7-3.7,0.5-4.9,4.7-4.6
			c12.2,0.9,24.2,0.4,35.3-5.8C101,50.3,101,53.7,101,57z"/>
		<path class="st1" d="M101,72c-11.4,8.3-24.4,7.4-37.3,6.7c-4.3-0.2-2.2-4-2.7-6.3c-0.7-3.7,0.5-4.9,4.7-4.6
			c12.2,0.9,24.2,0.4,35.3-5.8C101,65.3,101,68.7,101,72z"/>
		<path class="st2" d="M101,9c-6.4-5.1-14.1-6.3-22-7.1c-0.3-0.2-0.5-0.4-0.4-0.6C78.8,1.1,78.9,1,79,1c6,0,12,0.3,18-0.1
			c3.5-0.2,4.7,0.7,4,4.1C100.8,6.3,101,7.7,101,9z"/>
		<path class="st2" d="M1,93c3,3.6,7.3,4.8,11.6,6c1.8,0.5,3.9,0.4,5.4,2c-4.3,0-8.7-0.3-13,0.1c-3.5,0.3-4.7-0.7-4-4.1
			C1.2,95.7,1,94.3,1,93z"/>
		<path class="st3" d="M22,101c4.3-1.6,8.7-1.6,13,0C30.7,101,26.3,101,22,101z"/>
		<path class="st4" d="M79,1c0,0.3,0,0.6,0,0.9c-4,0-8.1,0-12.1,0c0-0.3,0-0.6,0-0.9C71,1,75,1,79,1z"/>
		<path class="st5" d="M1,69c0.8,0,1.6,0.2,2.1,0.9c0.2,3.1,1.1,6.2-1,9c-0.3,0-0.7,0-1,0C1,75.7,1,72.3,1,69z"/>
		<path class="st1" d="M2,79c0.4-3-1.1-6.2,1-9c17.8,7.2,35.5,6.7,53.2-0.3c2,8.5,0.7,11-7.4,13.5c-13.2,4-26.4,4-39.7,0
			C6.5,82.3,4,81.1,2,79z"/>
	</g>
</g>
</svg>
