<?xml version="1.0" encoding="utf-8"?>
<!-- Generator: Adobe Illustrator 19.1.1, SVG Export Plug-In . SVG Version: 6.00 Build 0)  -->
<svg version="1.1" id="Layer_1" xmlns="http://www.w3.org/2000/svg" xmlns:xlink="http://www.w3.org/1999/xlink" x="0px" y="0px"
	 viewBox="-5 -2 113 113" style="enable-background:new -5 -2 113 113;" xml:space="preserve">
<style type="text/css">
	.st1_wallet{fill:currentColor;}
</style>
<g>
	<g>
		<path class="st1_wallet" d="M50.7,92.9c-10.2,0-20.3,0.1-30.5,0c-7.7-0.1-11-3.3-11.1-10.9c-0.1-17-0.1-34,0-51c0-6.5,2.5-9.6,8.8-10.8
			c19.9-3.6,39.9-6.9,59.8-10.5c3.6-0.7,6,0,6.3,4c0.3,3.3,0.8,6.1-4.6,6.5c-19.4,1.5-38.7,3.7-58,5.6c-1.1,0.1-3.1-0.7-3.1,1.4
			c0,1.4,1.5,2.3,2.8,2.5c2,0.3,4,0.4,6,0.4c18.3,0,36.6,0,55,0c7.4,0,10.7,3.1,10.8,10.6c0.1,13.8,0.1,27.6,0,41.5
			c0,7.4-3.3,10.7-10.7,10.7C71.6,93,61.2,92.9,50.7,92.9z"/>
	</g>
</g>
</svg>
