<?xml version="1.0" encoding="utf-8"?>
<!-- Generator: Adobe Illustrator 19.1.0, SVG Export Plug-In . SVG Version: 6.00 Build 0)  -->
<svg version="1.1" id="Layer_1" xmlns="http://www.w3.org/2000/svg" xmlns:xlink="http://www.w3.org/1999/xlink" x="0px" y="0px"
	 viewBox="0 0 100 100" style="enable-background:new 0 0 100 100;" xml:space="preserve">
<style type="text/css">
	.st0{fill:#FEFEFE;}
	.st1{fill:#8F97D2;}
	.st2{fill:#FCFCFD;}
</style>
<g>
	<g>
		<path class="st0" d="M1,1c32.2,0,64.3,0.1,96.5-0.1c3,0,3.6,0.6,3.6,3.6c-0.1,31-0.1,62,0,93c0,3-0.6,3.6-3.6,3.6
			c-31-0.1-62-0.1-93,0c-3,0-3.6-0.6-3.6-3.6C1.1,65.3,1,33.2,1,1z"/>
		<path class="st1" d="M50.7,92.9c-10.2,0-20.3,0.1-30.5,0c-7.7-0.1-11-3.3-11.1-10.9c-0.1-17-0.1-34,0-51c0-6.5,2.5-9.6,8.8-10.8
			c19.9-3.6,39.9-6.9,59.8-10.5c3.6-0.7,6,0,6.3,4c0.3,3.3,0.8,6.1-4.6,6.5c-19.4,1.5-38.7,3.7-58,5.6c-1.1,0.1-3.1-0.7-3.1,1.4
			c0,1.4,1.5,2.3,2.8,2.5c2,0.3,4,0.4,6,0.4c18.3,0,36.6,0,55,0c7.4,0,10.7,3.1,10.8,10.6c0.1,13.8,0.1,27.6,0,41.5
			c0,7.4-3.3,10.7-10.7,10.7C71.6,93,61.2,92.9,50.7,92.9z"/>
		<path class="st2" d="M72,61.9c0-3.8,3-7,6.3-6.7c3.5,0.4,5.8,2.2,5.9,6.1c0,3.6-2.8,6.7-6.2,6.3C74.5,67.2,72.2,65.2,72,61.9z"/>
	</g>
</g>
</svg>
