<?xml version="1.0" encoding="utf-8"?>
<!-- Generator: Adobe Illustrator 19.1.0, SVG Export Plug-In . SVG Version: 6.00 Build 0)  -->
<svg version="1.1" id="Layer_1" xmlns="http://www.w3.org/2000/svg" xmlns:xlink="http://www.w3.org/1999/xlink" x="0px" y="0px"
	 viewBox="32 0 116 129" style="enable-background:new 32 0 116 129;" xml:space="preserve">
<style type="text/css">
	.st0{fill:none;stroke:#9098D3;stroke-width:9;stroke-miterlimit:10;}
	.st1{fill:#9098D3;}
	.st2{fill:#9098D3;stroke:#FFFFFF;stroke-width:4;stroke-miterlimit:10;}
</style>
<path class="st0" d="M119.8,102.3h-62c-2.8,0-5-2.3-5-5V36.6c0-2.8,2.3-5,5-5h62c2.8,0,5,2.3,5,5v60.6
	C124.8,100,122.5,102.3,119.8,102.3z"/>
<rect x="52.8" y="76.6" class="st1" width="27.4" height="8.4"/>
<rect x="52.8" y="53.1" class="st1" width="73.3" height="8.4"/>
<rect x="75.9" y="30.3" class="st1" width="8.4" height="73.3"/>
<path class="st2" d="M134.2,110.5l-3.6,1.4c-1.8,0.7-3.8,0-4.4-1.5l-25.8-65.6c0.7-2,1.3-4.4,2.6-3.1l0,0c1.8-0.7,4.1-1.3,4.7,0.3
	l28.7,64.4C137,108,136,109.8,134.2,110.5z"/>
<path class="st2" d="M114.9,116.9l-3.8,0.9c-1.9,0.4-3.7-0.5-4.1-2.1L91.4,46.9c1-1.9,1.9-4.1,3-2.6l0,0c1.9-0.4,4.2-0.6,4.6,1
	l18.7,68C118.1,114.8,116.8,116.5,114.9,116.9z"/>
</svg>
