<?xml version="1.0" encoding="utf-8"?>
<!-- Generator: Adobe Illustrator 19.1.1, SVG Export Plug-In . SVG Version: 6.00 Build 0)  -->
<svg version="1.1" id="Layer_1" xmlns="http://www.w3.org/2000/svg" xmlns:xlink="http://www.w3.org/1999/xlink" x="0px" y="0px"
	 viewBox="-25 27 48 48" style="enable-background:new -25 27 48 48;" xml:space="preserve">
<style type="text/css">
	.st0{fill:#9098D3;}
	.st1{fill:none;}
</style>
<path class="st0" d="M-6.7,61.7c3.1,3.1,8.2,3.1,11.3,0s3.1-8.2,0-11.3L-6.7,61.7z M11,32h-24c-2.2,0-4,1.8-4,4v32c0,2.2,1.8,4,4,4
	h24c2.2,0,4-1.8,4-4V36C15,33.8,13.2,32,11,32z M-5,36c1.1,0,2,0.9,2,2s-0.9,2-2,2s-2-0.9-2-2S-6.1,36-5,36z M-11,36
	c1.1,0,2,0.9,2,2s-0.9,2-2,2s-2-0.9-2-2S-12.1,36-11,36z M-1,68c-6.6,0-12-5.4-12-12s5.4-12,12-12s12,5.4,12,12S5.6,68-1,68z"/>
<path class="st1" d="M-480,284h48v48h-48V284z"/>
</svg>
