<?xml version="1.0" encoding="utf-8"?>
<!-- Generator: Adobe Illustrator 19.1.0, SVG Export Plug-In . SVG Version: 6.00 Build 0)  -->
<svg version="1.1" id="Layer_1" xmlns="http://www.w3.org/2000/svg" xmlns:xlink="http://www.w3.org/1999/xlink" x="0px" y="0px"
	 viewBox="-455 257 48 48" style="enable-background:new -455 257 48 48;" xml:space="preserve">
<style type="text/css">
	.st0{fill:#9098D3;}
	.st1{fill:none;}
</style>
<path class="st0" d="M-436.7,290.7c3.1,3.1,8.2,3.1,11.3,0s3.1-8.2,0-11.3L-436.7,290.7z M-419,261l-24,0c-2.2,0-4,1.8-4,4v32
	c0,2.2,1.8,4,4,4h24c2.2,0,4-1.8,4-4v-32C-415,262.8-416.8,261-419,261z M-435,265c1.1,0,2,0.9,2,2s-0.9,2-2,2s-2-0.9-2-2
	S-436.1,265-435,265z M-441,265c1.1,0,2,0.9,2,2s-0.9,2-2,2s-2-0.9-2-2S-442.1,265-441,265z M-431,297c-6.6,0-12-5.4-12-12
	s5.4-12,12-12s12,5.4,12,12S-424.4,297-431,297z"/>
<path class="st1" d="M-455,257h48v48h-48V257z"/>
</svg>
