<?xml version="1.0" encoding="utf-8"?>
<!-- Generator: Adobe Illustrator 19.1.1, SVG Export Plug-In . SVG Version: 6.00 Build 0)  -->
<svg version="1.1" id="Layer_1" xmlns="http://www.w3.org/2000/svg" xmlns:xlink="http://www.w3.org/1999/xlink" x="0px" y="0px"
	 viewBox="0 0 100 100" style="enable-background:new 0 0 100 100;" xml:space="preserve">
<style type="text/css">
	.st0_shared{fill:currentColor;}
</style>
<path class="st0_shared" d="M13.5,55.2c2.6,2.7,7,2.7,9.6,0c2.6-2.7,2.6-7,0-9.7L13.5,55.2z M28.5,29.7H8.1c-1.9,0-3.4,1.5-3.4,3.4v27.5
	c0,1.9,1.5,3.4,3.4,3.4h20.4c1.9,0,3.4-1.5,3.4-3.4V33.1C31.9,31.2,30.4,29.7,28.5,29.7z M14.9,33.1c0.9,0,1.7,0.8,1.7,1.7
	c0,0.9-0.8,1.7-1.7,1.7s-1.7-0.8-1.7-1.7C13.2,33.9,14,33.1,14.9,33.1z M9.8,33.1c0.9,0,1.7,0.8,1.7,1.7c0,0.9-0.8,1.7-1.7,1.7
	s-1.7-0.8-1.7-1.7C8.1,33.9,8.9,33.1,9.8,33.1z M18.3,60.6c-5.6,0-10.2-4.6-10.2-10.3S12.7,40,18.3,40s10.2,4.6,10.2,10.3
	S23.9,60.6,18.3,60.6z"/>
<path class="st0_shared" d="M45.9,55.2c2.6,2.7,7,2.7,9.6,0c2.6-2.7,2.6-7,0-9.7L45.9,55.2z M61,29.7H40.6c-1.9,0-3.4,1.5-3.4,3.4v27.5
	c0,1.9,1.5,3.4,3.4,3.4H61c1.9,0,3.4-1.5,3.4-3.4V33.1C64.4,31.2,62.8,29.7,61,29.7z M47.4,33.1c0.9,0,1.7,0.8,1.7,1.7
	c0,0.9-0.8,1.7-1.7,1.7c-0.9,0-1.7-0.8-1.7-1.7C45.7,33.9,46.4,33.1,47.4,33.1z M42.3,33.1c0.9,0,1.7,0.8,1.7,1.7
	c0,0.9-0.8,1.7-1.7,1.7c-0.9,0-1.7-0.8-1.7-1.7C40.6,33.9,41.3,33.1,42.3,33.1z M50.8,60.6c-5.6,0-10.2-4.6-10.2-10.3
	S45.2,40,50.8,40S61,44.6,61,50.3S56.4,60.6,50.8,60.6z"/>
<path class="st0_shared" d="M77.1,55.2c2.6,2.7,7,2.7,9.6,0c2.6-2.7,2.6-7,0-9.7L77.1,55.2z M92.1,29.7H71.7c-1.9,0-3.4,1.5-3.4,3.4v27.5
	c0,1.9,1.5,3.4,3.4,3.4h20.4c1.9,0,3.4-1.5,3.4-3.4V33.1C95.5,31.2,94,29.7,92.1,29.7z M78.5,33.1c0.9,0,1.7,0.8,1.7,1.7
	c0,0.9-0.8,1.7-1.7,1.7c-0.9,0-1.7-0.8-1.7-1.7C76.8,33.9,77.6,33.1,78.5,33.1z M73.4,33.1c0.9,0,1.7,0.8,1.7,1.7
	c0,0.9-0.8,1.7-1.7,1.7c-0.9,0-1.7-0.8-1.7-1.7C71.7,33.9,72.5,33.1,73.4,33.1z M81.9,60.6c-5.6,0-10.2-4.6-10.2-10.3
	S76.3,40,81.9,40s10.2,4.6,10.2,10.3S87.5,60.6,81.9,60.6z"/>
</svg>
