<?xml version="1.0" encoding="utf-8"?>
<!-- Generator: Adobe Illustrator 19.1.1, SVG Export Plug-In . SVG Version: 6.00 Build 0)  -->
<svg version="1.1" id="Layer_1" xmlns="http://www.w3.org/2000/svg" xmlns:xlink="http://www.w3.org/1999/xlink" x="0px" y="0px"
	 viewBox="-24 26 50 50" style="enable-background:new -24 26 50 50;" xml:space="preserve">
<style type="text/css">
	.st0{fill:#9098D3;}
</style>
<rect x="-12.8" y="31.9" class="st0" width="27.4" height="44.1"/>
<path class="st0" d="M-14.2,29l6.8,4.5c0.3,0.2,0.3,0.6,0.1,0.8l-9,11.9c-0.2,0.3-0.6,0.3-0.8,0.1l-6.6-4.6
	c-0.3-0.2-0.3-0.6-0.1-0.8L-15,29C-14.8,28.8-14.4,28.8-14.2,29z"/>
<path class="st0" d="M19,46.3l6.8-4.5c0.3-0.2,0.3-0.6,0.1-0.8l-9-11.9c-0.2-0.3-0.6-0.3-0.8-0.1l-6.6,4.6c-0.3,0.2-0.3,0.6-0.1,0.8
	l8.9,11.8C18.4,46.5,18.8,46.5,19,46.3z"/>
<path class="st0" d="M17.2,29.8c0,2.1-7.4,3.8-16.5,3.8s-16.4-1.2-16.4-3.3S-8.5,26,0.6,26S17.2,27.7,17.2,29.8z M-5.6,26
	c0,3.5,2.8,6.3,6.3,6.3s6.3-2.8,6.3-6.3"/>
</svg>
