<?xml version="1.0" encoding="utf-8"?>
<!-- Generator: Adobe Illustrator 19.1.1, SVG Export Plug-In . SVG Version: 6.00 Build 0)  -->
<svg version="1.1" id="Layer_1" xmlns="http://www.w3.org/2000/svg" xmlns:xlink="http://www.w3.org/1999/xlink" x="0px" y="0px"
	 viewBox="0 0 100 100" style="enable-background:new 0 0 100 100;" xml:space="preserve">
<style type="text/css">
	.st1_books{fill:green;}
	.st0_books{fill:blue;}
</style>
<g>
	<path class="st0_books" d="M62.1,100c-1.3,0-2.7,0-4,0c-14.5-1.6-28-6.9-41.7-11.2c-12-3.8-15-7.7-14.1-20C2.6,63.3,2.4,57.9,2,52.5
		C1.3,45,4.4,39.3,9.2,34.1c8.8-9.5,17.6-19,26-28.9c2.4-2.8,5.6-4,8.9-5.2c0.7,0,1.3,0,2,0c14.3,1.5,28.4,4.3,42.4,7.7
		c1.9,0.5,3.9,0.8,5.7,1.7c3.6,1.7,4.9,6,2.6,9.2c-1.8,2.5-3.6,5.2-6.6,6.5c-4.3,5.6-8.1,11.7-12.9,17c-4.5,4.9-8.8,10-12.9,15.3
		c-3.6,4.7-8.1,5.2-13.4,3.3c-8.8-3.1-17.8-5.4-26.7-8.2c-1.6-0.5-3.2-1-4.8-1.3c-1.8-0.3-3.9-0.9-4.6,1.5c-0.8,2.6,0.8,4.1,3.1,4.8
		c11.9,3.7,23.9,7.3,35.8,11c2.7,0.9,4.9,0.2,6.6-2c7.1-8.8,14.3-17.5,21.3-26.4c2.1-2.6,3.9-5.2,4.4-8.8c0.4-2.5,1.8-4.7,3.9-6.3
		c5.1-1.5,7.8,0.2,8,5.3c0.1,4.5,0.4,9-0.9,13.4c-0.9,2.8-0.6,5.6,0.3,8.3c1.2,3.7,0.8,7.1-1.8,10.3c-9.4,11.4-18.6,23-28.2,34.2
		C66,98.4,63.8,98.7,62.1,100z"/>
	<path class="st1_books" d="M62,100c10.4-12.7,20.6-25.5,31.1-38.1c2.5-3,3.5-5.7,1.8-9.4c-1.3-2.8-1.5-6-0.4-8.8c1.8-4.5,1-9.1,1.4-13.7
		c0.3-4.1-2.7-4.3-5.8-4c-1.1,0.3-1.5-0.1-1.2-1.2c1.4-1.8,2.8-3.7,4.3-5.5c4.3-5.2,3.8-7.2-2.7-8.7c-12.8-3-25.6-5.8-38.4-8.8
		C50,1.4,47.8,1.5,46,0c16.8,0,33.6,0,50.4-0.1c2.6,0,3.8,0,3.7,3.4c-0.2,31.1-0.2,62.2,0,93.3c0,3.3-1,3.5-3.7,3.5
		C84.9,99.9,73.5,100,62,100z"/>
	<path class="st1_books" d="M88.4,25.5c0.4,0.4,0.8,0.8,1.2,1.2c1.7,1.5,0.6,2.4,0.7,3.7c0.4,6.4-6.4,10.7-9.9,15c-6.5,8-13,16-19.4,24.1
		c-2,2.5-3.8,3.5-7.2,2.4C41.2,67.8,28.5,64,15.7,60.1c-4.2-1.3-5.9-4.7-4.3-8.9c1.5-4.1,4.7-2.8,7.5-2c11,3.3,22,6.4,32.9,10.1
		c4.5,1.5,7.3,0.7,10.3-3C70.7,45.8,79.6,35.7,88.4,25.5z"/>
	<path class="st1_books" d="M85.1,52.5c2.4,3.3,1.9,5.4-0.1,7.8c-8.3,9.9-16.6,20-24.7,30.1c-1.7,2.1-3.3,2.7-5.9,1.8
		c-12.6-4.2-25.3-8.2-38-12.2c-2.3-0.7-4.4-1.6-5-4.3c-0.5-2.1-1-4.4,0.4-6.3c1.6-2.2,3.7-0.4,5.5,0.1c12.7,3.8,25.5,7.7,38.1,11.8
		c3.8,1.2,6.2,0.4,8.6-2.7C70.7,70.1,77.8,61.5,85.1,52.5z"/>
	<path class="st1_books" d="M49.2,14c7.1,1.7,15.1,3.6,23.1,5.6c1.9,0.5,2.2,1.7,1.1,3.4c-1.8,2.6-3.9,3.6-7.2,2.8
		c-6.4-1.7-12.9-3-19.3-4.7c-1.7-0.5-4.9,0-4.5-2.7C42.8,15.8,45,13.8,49.2,14z"/>
</g>
</svg>
