<?xml version="1.0" encoding="iso-8859-1"?>
<!-- Generator: Adobe Illustrator 18.0.0, SVG Export Plug-In . SVG Version: 6.00 Build 0)  -->
<!DOCTYPE svg PUBLIC "-//W3C//DTD SVG 1.1//EN" "http://www.w3.org/Graphics/SVG/1.1/DTD/svg11.dtd">
<svg version="1.1" id="Capa_1" xmlns="http://www.w3.org/2000/svg" xmlns:xlink="http://www.w3.org/1999/xlink" x="0px" y="0px"
	 viewBox="0 0 489.006 489.006" style="enable-background:new 0 0 489.006 489.006;" xml:space="preserve"  fill="currentColor">
<g>
	<path d="M472.944,364.993l-46.204-79.305c-2.46-4.223-6.9-6.563-11.46-6.554c-0.084-0.005-0.167-0.013-0.251-0.013h-37.152
		c-0.085,0-0.168,0.007-0.251,0.013c-4.56-0.009-9,2.332-11.46,6.554l-46.204,79.305c-3.675,6.308-1.541,14.4,4.767,18.076
		c2.093,1.22,4.383,1.799,6.642,1.799c4.55,0,8.978-2.352,11.434-6.566l20.379-34.98v14.976l-9.121,65.722
		c-0.768,5.536,3.532,10.474,9.121,10.474v40.169c0,7.511,5.772,13.974,13.274,14.328c8.011,0.378,14.625-6.006,14.625-13.933
		v-40.563h11.021v40.169c0,7.511,5.772,13.975,13.276,14.328c8.01,0.377,14.623-6.006,14.623-13.933v-40.563
		c5.589,0,9.889-4.938,9.121-10.474l-9.121-65.723v-14.495l20.099,34.499c2.456,4.214,6.884,6.566,11.434,6.566
		c2.26,0,4.549-0.579,6.642-1.799C474.485,379.394,476.62,371.301,472.944,364.993z"/>
	<path d="M349.533,273.423l7.431-0.662c4.273-0.38,7.284-4.375,6.448-8.584c-1.275-6.431-1.716-15.357,3.623-20.876
		c-0.006,0.232-0.018,0.463-0.018,0.696c0,16.58,13.441,30.021,30.021,30.021c16.579,0,30.02-13.441,30.02-30.021
		c0-0.233-0.012-0.464-0.019-0.696c5.34,5.52,4.899,14.445,3.623,20.876c-0.834,4.209,2.176,8.203,6.449,8.584l7.43,0.662
		c3.928,0.35,7.41-2.508,7.83-6.429c1.022-9.521,0.845-23.805-4.54-29.477c-7.948-8.372-17.778-8.457-24.128-7.303
		c-4.993-9.644-15.056-16.239-26.666-16.239s-21.673,6.595-26.667,16.239c-6.349-1.154-16.181-1.069-24.128,7.303
		c-5.383,5.672-5.561,19.957-4.541,29.477C342.125,270.914,345.606,273.773,349.533,273.423z"/>
	<path d="M335.205,214.971c-1.576-9.933-10.909-16.711-20.837-15.133l-49.261,7.81l-55.079-91.832
		c-2.309-3.849-9.002-10.869-20.473-10.869c0,0-65.052,0-73.225,0c-8.173,0-13.97,5.03-15.324,6.137l-80.06,65.459
		c-3.985,3.258-6.405,8.05-6.661,13.191c-0.256,5.141,1.675,10.15,5.315,13.788l45.525,45.494c3.556,3.553,8.213,5.329,12.873,5.329
		c4.569,0,9.133-1.721,12.661-5.139l-30.083,93.985c-5.775,18.04,7.684,36.48,26.626,36.48h7.71v85.114
		c0,13.67,11.326,24.695,25.105,24.204c13.124-0.468,23.336-11.652,23.336-24.785v-84.533h19.177v85.114
		c0,13.669,11.324,24.694,25.103,24.204c13.125-0.467,23.338-11.653,23.338-24.786v-84.532h7.93c18.942,0,32.402-18.44,26.627-36.48
		l-34.557-107.271v-47.722l29.226,48.727c3.325,5.542,9.287,8.845,15.613,8.845c0.946,0,1.901-0.074,2.856-0.226l61.405-9.736
		C330.004,234.234,336.779,224.904,335.205,214.971z M59.589,191.994l35.324-28.881v66.276c-0.889-2.233-2.233-4.327-4.042-6.134
		L59.589,191.994z M211.893,315.612c0.216,0,0.427-0.022,0.641-0.032l11.083,34.626c0.634,1.98-0.039,3.501-0.717,4.428
		c-0.676,0.927-1.92,2.032-3.999,2.032h-1.61c-0.758-6.8-6.52-12.089-13.521-12.089c-7.002,0-12.763,5.289-13.521,12.089h-78.892
		c-1.691-1.246-3.772-1.991-6.033-1.991c-2.262,0-4.343,0.745-6.034,1.991H87.423c-2.08,0-3.323-1.105-3.999-2.032
		c-0.676-0.927-1.349-2.447-0.716-4.428l9.587-29.95c1.854,0.984,3.967,1.546,6.212,1.546c7.332,0,13.277-5.945,13.277-13.278
		c0-6.737-5.023-12.289-11.525-13.149l11.667-36.448h71.075c0,0.012-0.004,0.024-0.004,0.036c0,2.91,2.359,5.269,5.269,5.269
		c2.91,0,5.269-2.359,5.269-5.269c0-0.013-0.004-0.024-0.004-0.036h0.869l10.511,32.836c-3.587,2.303-5.969,6.318-5.969,10.897
		C198.941,309.814,204.74,315.612,211.893,315.612z"/>
	<path d="M152.946,95.738c26.442,0,47.868-21.428,47.868-47.869C200.814,21.427,179.388,0,152.946,0
		c-26.443,0-47.87,21.427-47.87,47.869C105.076,74.31,126.502,95.738,152.946,95.738z"/>
	<circle cx="115.516" cy="274.989" r="3.732"/>
	<circle cx="162.871" cy="298.848" r="20.127"/>
	<circle cx="136.135" cy="329.242" r="7.44"/>
</g>
<g>
</g>
<g>
</g>
<g>
</g>
<g>
</g>
<g>
</g>
<g>
</g>
<g>
</g>
<g>
</g>
<g>
</g>
<g>
</g>
<g>
</g>
<g>
</g>
<g>
</g>
<g>
</g>
<g>
</g>
</svg>
