<?xml version="1.0" encoding="utf-8"?>
<!-- Generator: Adobe Illustrator 16.0.0, SVG Export Plug-In . SVG Version: 6.00 Build 0)  -->
<!DOCTYPE svg PUBLIC "-//W3C//DTD SVG 1.1//EN" "http://www.w3.org/Graphics/SVG/1.1/DTD/svg11.dtd">
<svg version="1.1" id="Layer_1" xmlns="http://www.w3.org/2000/svg" xmlns:xlink="http://www.w3.org/1999/xlink" x="0px" y="0px"
	 viewBox="-75 -50 650 650" enable-background="new -75 -50 650 650" xml:space="preserve">
<path d="M93.094,25.688c3.125-15.438,16.844-26,32-25.688c1.875,0.031,3.781,0.25,5.719,0.625
	c89.813,18.125,180.656,63.5,276.938,137.563l36.875-42.844L503.75,264l-175.688-33.188l37.938-44
	c-86.531-66-169.844-107.688-247.875-123.438C100.813,59.875,89.594,43,93.094,25.688z M104,192c0-17.673-14.327-32-32-32H40
	c-17.673,0-32,14.327-32,32v288c0,17.673,14.327,32,32,32h32c17.673,0,32-14.327,32-32V192z M488,384c0-17.673-14.327-32-32-32h-32
	c-17.673,0-32,14.327-32,32v96c0,17.673,14.327,32,32,32h32c17.673,0,32-14.327,32-32V384z M232,256c0-17.673-14.327-32-32-32h-32
	c-17.673,0-32,14.327-32,32v224c0,17.673,14.327,32,32,32h32c17.673,0,32-14.327,32-32V256z M360,320c0-17.673-14.327-32-32-32h-32
	c-17.673,0-32,14.327-32,32v160c0,17.673,14.327,32,32,32h32c17.673,0,32-14.327,32-32V320z" fill="currentColor" />
</svg>
