<?xml version="1.0" encoding="iso-8859-1"?>
<!-- Generator: Adobe Illustrator 16.0.0, SVG Export Plug-In . SVG Version: 6.00 Build 0)  -->
<!DOCTYPE svg PUBLIC "-//W3C//DTD SVG 1.1//EN" "http://www.w3.org/Graphics/SVG/1.1/DTD/svg11.dtd">
<svg version="1.1" id="Capa_1" xmlns="http://www.w3.org/2000/svg" xmlns:xlink="http://www.w3.org/1999/xlink" x="0px" y="0px"
	 width="31.512px" height="31.512px" viewBox="0 0 31.512 31.512" style="enable-background:new 0 0 31.512 31.512;"
	 xml:space="preserve"  fill="currentColor">
<g>
	<g>
		<path d="M24.312,17.943c-0.125-1.153,0.424-1.85,0.638-2.071c0.194,1.194,1.226,2.108,2.474,2.108c1.184,0,2.17-0.822,2.439-1.924
			c0.201,0.359,0.546,1.096,0.463,1.887c2.096-0.019,1.062-2.414-0.406-2.677c-0.012-0.124-0.021-0.245-0.048-0.363
			c-0.088-0.757-0.765-2.297-2.709-2.25c-1.677,0.04-2.042,1.301-2.129,2.07c-0.06,0.189-0.097,0.386-0.11,0.591
			C22.741,15.693,22.982,17.907,24.312,17.943z M26.245,14.753c0,0,0.215,0.075,0.215,0.775c0.371,0.129,1.013-1.089,1.013-1.089
			v0.959c0.411,0.111,1.7-0.037,1.7-0.037l0.048,0.041c0,0.021,0.008,0.042,0.008,0.062c0,0.996-0.811,1.806-1.806,1.806
			c-0.979,0-1.778-0.789-1.799-1.766C25.982,15.374,26.245,14.753,26.245,14.753z"/>
		<polygon points="27.982,18.312 26.924,18.312 26.038,18.312 23.443,21.438 24.008,22.201 25.943,19.982 26.055,20.862
			25.693,21.471 27.757,21.965 29.225,21.572 28.758,20.862 28.846,19.78 30.359,21.809 31.363,21.561 28.961,18.312 		"/>
		<polygon points="25.309,24.109 29.795,22.816 29.48,21.721 27.909,22.175 27.561,22.275 24.992,23.014 		"/>
		<polygon points="25.448,21.596 25.188,22.705 25.398,22.754 27.637,22.11 		"/>
		<polygon points="28.21,23.416 29.872,23.807 30.134,22.698 29.889,22.641 29.928,22.778 29.966,22.909 29.834,22.947 		"/>
		<polygon points="16.158,23.965 20.828,22.619 20.499,21.48 18.861,21.952 16.536,22.622 15.83,22.826 		"/>
		<polygon points="21.18,22.497 20.923,22.436 20.964,22.58 21.003,22.716 20.868,22.755 19.177,23.243 20.907,23.65 		"/>
		<polygon points="16.305,21.35 16.032,22.503 16.253,22.557 18.581,21.885 		"/>
		<path d="M16.021,14.993c0,1.262,1.021,2.284,2.283,2.284c1.26,0,2.281-1.021,2.281-2.284c0-0.788,0.275-1.508-0.331-1.918
			c-0.362-0.246-1.965-0.364-2.438-0.364c-0.562,0-1.293,0.459-1.689,0.795C15.632,13.925,16.021,14.294,16.021,14.993z
			 M16.714,14.769c0.419-0.077,0.705,0.062,0.705,0.062l0.701-0.341c0,0-0.356,0.516-0.035,0.341
			c0.712-0.241,1.509-0.139,1.916-0.061c0.015,0.09,0.026,0.181,0.026,0.275c0,0.94-0.748,1.7-1.672,1.7
			c-0.922,0-1.67-0.76-1.67-1.7C16.688,14.952,16.699,14.86,16.714,14.769z"/>
		<polygon points="22.504,20.939 19.911,17.753 16.895,17.753 13.732,21.223 14.396,21.905 16.657,19.973 16.67,21.299
			18.721,21.78 20.191,21.43 20.202,20.044 22.012,21.902 		"/>
		<circle cx="5.28" cy="7.234" r="2.404"/>
		<polygon points="2.892,20.178 1.646,22.923 2.399,23.266 3.802,20.178 5.858,20.178 7.206,23.26 7.964,22.928 6.762,20.178
			7.635,20.178 7.635,18.934 2.891,18.934 1.205,12.192 0,12.494 1.921,20.178 		"/>
		<path d="M4.099,10.385l-0.407,8.173h0.994h0.389h0.569H7.36h0.106h0.946h1.103v5.06h2.163v-6.742h-0.173h-1.99H8.161l0,0H7.134
			l0.015-4.072l2.332,2.188l0.001-0.007l0.192-0.08l-0.342,0.44l3.978-0.324l3.459-4.451l-0.024,0.002l-0.9-1.619l-1.151,1.786
			l-1.901,0.155l-1.485,1.911l-1.79,0.744l-2.686-3.164H4.099z M10.448,14.585l2.089-0.87l-0.493-1.185l0.961-1.237l2.859-0.232
			l-2.771,3.563l-2.858,0.233L10.448,14.585z"/>
		<rect x="0.815" y="25.682" width="30.354" height="1"/>
	</g>
</g>
<g>
</g>
<g>
</g>
<g>
</g>
<g>
</g>
<g>
</g>
<g>
</g>
<g>
</g>
<g>
</g>
<g>
</g>
<g>
</g>
<g>
</g>
<g>
</g>
<g>
</g>
<g>
</g>
<g>
</g>
</svg>
