<?xml version="1.0" encoding="iso-8859-1"?>
<!-- Generator: Adobe Illustrator 18.1.1, SVG Export Plug-In . SVG Version: 6.00 Build 0)  -->
<svg version="1.1" id="Capa_1" xmlns="http://www.w3.org/2000/svg" xmlns:xlink="http://www.w3.org/1999/xlink" x="0px" y="0px"
	 viewBox="0 0 611.998 611.998" style="enable-background:new 0 0 611.998 611.998;" xml:space="preserve"  fill="currentColor">
<g>
	<path d="M572.267,302.672c-2.268-5.892-6.822-10.617-12.628-13.098c-30.053-12.844-58.914-28.367-85.784-46.141
		c-28.48-18.838-56.327-40.148-67.13-68.275c-3.473-9.032-12.146-14.992-21.819-14.992h-55.538v-27.721
		c0-18.488-14.808-28.217-25.616-35.321c-14.69-9.651-21.128-15.122-21.128-27.005c0-12.888,10.485-23.372,23.372-23.372
		s23.372,10.484,23.372,23.372c0,12.909,10.463,23.374,23.372,23.374s23.372-10.465,23.372-23.374
		C376.115,31.454,344.664,0,305.999,0c-38.663,0-70.117,31.454-70.117,70.117c0,38.342,27.454,56.381,42.203,66.072
		c1.414,0.928,3.091,2.031,4.542,3.032v20.944h-55.538c-9.676,0-18.348,5.96-21.819,14.992
		c-10.803,28.125-38.648,49.436-67.133,68.279c-26.848,17.762-55.708,33.286-85.777,46.137c-5.806,2.481-10.36,7.204-12.628,13.096
		c-2.268,5.892-2.057,12.451,0.588,18.182l6.818,14.786c3.819,8.28,12.106,13.584,21.226,13.584h73.651v221.128
		c0,8.814,7.146,15.96,15.959,15.96c5.286,0,7.369,1.908,13.162,7.942c6.788,7.067,17.042,17.746,36.169,17.746
		c19.139,0,29.399-10.681,36.187-17.75c5.794-6.031,7.876-7.939,13.16-7.939c5.274,0,7.357,1.906,13.143,7.934
		c3.268,3.402,7.352,7.633,12.829,11.116l0.008,0.005c5.904,3.753,13.429,6.634,23.357,6.634c9.934,0,17.463-2.886,23.37-6.644
		l0.008-0.007c5.467-3.481,9.546-7.706,12.809-11.104c5.788-6.028,7.869-7.934,13.14-7.934c5.293,0,7.378,1.909,13.176,7.942
		c6.79,7.067,17.05,17.745,36.186,17.745c19.127,0,29.384-10.68,36.169-17.745c5.798-6.036,7.883-7.944,13.176-7.944
		c8.814,0,15.959-7.146,15.959-15.96V349.225h73.647c9.118,0,17.404-5.303,21.224-13.581l6.82-14.786
		C574.322,315.124,574.535,308.564,572.267,302.672z M282.627,289.209h-3.447H160.211c65.447-33.903,127.279-80.471,129.168-82.112
		l33.244,0.002c1.888,1.641,63.701,48.202,129.163,82.11H282.627z"/>
</g>
<g>
</g>
<g>
</g>
<g>
</g>
<g>
</g>
<g>
</g>
<g>
</g>
<g>
</g>
<g>
</g>
<g>
</g>
<g>
</g>
<g>
</g>
<g>
</g>
<g>
</g>
<g>
</g>
<g>
</g>
</svg>
