<?xml version="1.0" encoding="utf-8"?>
<!-- Generator: Adobe Illustrator 19.1.0, SVG Export Plug-In . SVG Version: 6.00 Build 0)  -->
<svg version="1.1" id="Layer_1" xmlns="http://www.w3.org/2000/svg" xmlns:xlink="http://www.w3.org/1999/xlink" x="0px" y="0px"
	 viewBox="-455 257 48 48" style="enable-background:new -455 257 48 48;" xml:space="preserve">
<style type="text/css">
	.st0{fill:none;}
	.st1{fill:#9098D3;}
</style>
<path class="st0" d="M-455,257h48v48h-48V257z"/>
<path class="st1" d="M-423,279c3.3,0,6-2.7,6-6s-2.7-6-6-6s-6,2.7-6,6S-426.3,279-423,279z M-439,279c3.3,0,6-2.7,6-6s-2.7-6-6-6
	s-6,2.7-6,6S-442.3,279-439,279z M-439,283c-4.7,0-14,2.3-14,7v5h28v-5C-425,285.3-434.3,283-439,283z M-423,283
	c-0.6,0-1.2,0-1.9,0.1c2.3,1.7,3.9,3.9,3.9,6.9v5h12v-5C-409,285.3-418.3,283-423,283z"/>
</svg>
