<?xml version="1.0" encoding="utf-8"?>
<!-- Generated by IcoMoon.io -->
<!DOCTYPE svg PUBLIC "-//W3C//DTD SVG 1.1//EN" "http://www.w3.org/Graphics/SVG/1.1/DTD/svg11.dtd">
<svg version="1.1" xmlns="http://www.w3.org/2000/svg" xmlns:xlink="http://www.w3.org/1999/xlink" viewBox="0 0 512 512">
<g>
</g>
	<path d="M245.299 150.272c0 28.467-23.019 51.517-51.487 51.517-28.436 0-51.476-23.050-51.476-51.517 0-28.416 23.040-51.477 51.476-51.477 28.467 0 51.487 23.061 51.487 51.477z" fill="currentColor" />
	<path d="M379.085 150.149c0 28.424-23.042 51.466-51.466 51.466-28.424 0-51.466-23.042-51.466-51.466 0-28.424 23.042-51.466 51.466-51.466 28.424 0 51.466 23.042 51.466 51.466z" fill="currentColor" />
	<path d="M255.539 245.945c0 0 4.495-18.125 33.925-20.368l91.678 2.253c0 0 89.416-27.156 98.498-50.913 0 0 22.62 0 2.243 36.229 0 0-37.346 42.988-89.416 57.723l-2.294 93.911c0 0-65.086 97.331-127.591 16.486l-0.666-76.759-17.531 0.286v74.69c0 0-30.761 54.344-86.221 9.083 0 0-32.829-28.324-35.113-40.734l-2.284-82.647c0 0-58.819-21.514-79.186-48.681 0 0-27.187-24.914-18.145-40.714 0 0 17.008-2.263 29.44 13.568 0 0 38.502 31.672 70.174 31.672 0 0 30.566 7.936 91.689 7.936 0.010-0.010 35.102 1.126 40.796 16.978z" fill="currentColor" />
</svg>
