<?xml version="1.0" encoding="utf-8"?>
<!-- Generator: Adobe Illustrator 19.1.1, SVG Export Plug-In . SVG Version: 6.00 Build 0)  -->
<svg version="1.1" id="Layer_1" xmlns="http://www.w3.org/2000/svg" xmlns:xlink="http://www.w3.org/1999/xlink" x="0px" y="0px"
	 viewBox="455 -214 105 109" style="enable-background:new 455 -214 105 109;" xml:space="preserve">
<style type="text/css">
	.st0{fill:#FFFFFF;}
	.st1{fill:none;stroke:#FFFFFF;stroke-width:5;stroke-miterlimit:10;}
</style>
<path class="st0" d="M522.1-143L522.1-143c-0.9,1-2.5,1-3.4,0.1L494-166.8c-1-0.9-1-2.5-0.1-3.4l0,0c0.9-1,2.5-1,3.4-0.1l24.7,23.9
	C523-145.5,523.1-143.9,522.1-143z"/>
<path class="st0" d="M494.3-142.8L494.3-142.8c-0.9-0.9-0.9-2.5,0-3.4l24.1-24.1c0.9-0.9,2.5-0.9,3.4,0l0,0c0.9,0.9,0.9,2.5,0,3.4
	l-24.1,24.1C496.8-141.9,495.2-141.9,494.3-142.8z"/>
<circle class="st1" cx="508" cy="-158" r="44.9"/>
</svg>
