<?xml version="1.0" encoding="utf-8"?>
<!-- Generator: Adobe Illustrator 19.1.0, SVG Export Plug-In . SVG Version: 6.00 Build 0)  -->
<svg version="1.1" id="Layer_1" xmlns="http://www.w3.org/2000/svg" xmlns:xlink="http://www.w3.org/1999/xlink" x="0px" y="0px"
	 viewBox="0 0 960 560" style="enable-background:new 0 0 960 560;" xml:space="preserve">
<style type="text/css">
	.st0{fill:#FFFFFF;}
	.st1{fill:none;stroke:#FFFFFF;stroke-width:5;stroke-miterlimit:10;}
</style>
<path class="st0" d="M319,165.1L319,165.1c-0.9,1-2.5,1-3.4,0.1l-24.7-23.9c-1-0.9-1-2.5-0.1-3.4l0,0c0.9-1,2.5-1,3.4-0.1l24.7,23.9
	C319.9,162.6,320,164.2,319,165.1z"/>
<path class="st0" d="M291.2,165.3L291.2,165.3c-0.9-0.9-0.9-2.5,0-3.4l24.1-24.1c0.9-0.9,2.5-0.9,3.4,0v0c0.9,0.9,0.9,2.5,0,3.4
	l-24.1,24.1C293.7,166.2,292.1,166.2,291.2,165.3z"/>
<circle class="st1" cx="304.9" cy="150.1" r="44.9"/>
</svg>
