<?xml version="1.0" encoding="utf-8"?>
<!-- Generator: Adobe Illustrator 19.1.1, SVG Export Plug-In . SVG Version: 6.00 Build 0)  -->
<svg version="1.1" id="Layer_1" xmlns="http://www.w3.org/2000/svg" xmlns:xlink="http://www.w3.org/1999/xlink" x="0px" y="0px"
	 viewBox="-48 49.6 3.2 3.2" style="enable-background:new -48 49.6 3.2 3.2;" xml:space="preserve">
<style type="text/css">
	.st0{fill:#8F97D2;}
	.st1{fill:#FEFEFE;}
</style>
<path class="st0" d="M-47.6,52.5L-47.6,52.5c-0.3-0.3-0.4-0.8-0.1-1.1l1.3-1.5c0.3-0.3,0.8-0.4,1.1-0.1l0,0c0.3,0.3,0.4,0.8,0.1,1.1
	l-1.3,1.5C-46.8,52.8-47.3,52.8-47.6,52.5z"/>
<g>
	<g>
		<path class="st1" d="M-45.8,49.8c0.2,0,0.5,0.1,0.6,0.3c0.1,0.2,0.1,0.5,0,0.7c-0.2,0.2-0.3,0.4-0.5,0.6c-0.1,0.1-0.1,0-0.1,0
			c-0.2-0.2-0.4-0.3-0.5-0.5c-0.1-0.1-0.1-0.1-0.2,0c-0.3,0.3-0.6,0.7-0.9,1c0,0,0,0.1-0.1,0.1c-0.1,0,0-0.1,0-0.1
			c0-0.2,0.1-0.3,0.2-0.5c0.4-0.4,0.8-0.9,1.2-1.3C-46.2,49.9-46,49.8-45.8,49.8z"/>
	</g>
</g>
</svg>
