<?xml version="1.0" encoding="utf-8"?>
<!-- Generator: Adobe Illustrator 19.1.0, SVG Export Plug-In . SVG Version: 6.00 Build 0)  -->
<svg version="1.1" id="Layer_1" xmlns="http://www.w3.org/2000/svg" xmlns:xlink="http://www.w3.org/1999/xlink" x="0px" y="0px"
	 viewBox="0 0 3 1.5" style="enable-background:new 0 0 3 1.5;" xml:space="preserve">
<style type="text/css">
	.st0{fill:#8F97D2;}
	.st1{fill:#FEFEFE;}
	.st2{fill:#FDFEFE;}
	.st3{fill:#CDD0EA;}
	.st4{fill:#C6CAE8;}
</style>
<g>
	<g>
		<path class="st0" d="M-381.6-339.1c0,0.3,0,0.7,0,1c-0.5,9.5-5.8,16.1-12.4,22.3c-12.3,11.7-24.3,23.7-36,36
			c-5.6,5.9-12.1,8.4-20,8.2c-2.2,0.2-4.5-0.5-6.6,0.5c-0.3,0-0.7,0-1,0c-1.3-0.8-2.9-0.7-4.3-0.9c-10.9-1.8-16.9-7.8-18.8-18.8
			c-0.2-1.4-0.1-3-0.9-4.3c0-0.3,0-0.7,0-1c0.8-2.3,0.8-4.7,0-7c0-0.3,0-0.7,0-1c0.5-9.4,5.8-16,12.4-22.3
			C-457-338-445-350-433.3-362.3c5.7-6,12.3-8.6,20.4-8.3c2.3,0,4.7,0,7,0c14-0.2,24.4,9.4,23.8,24.5
			C-381.8-343.8-382.6-341.4-381.6-339.1z"/>
		<path class="st1" d="M-413.7-370.2c-6.4,0.7-11.7,3.6-16.2,8c-13.8,13.7-27.4,27.5-41.3,41c-5,4.9-7.7,11-10.4,17.1
			c0-21.3,0.1-42.5-0.1-63.8c0-2.8,0.6-3.3,3.3-3.3c21.6,0.1,43.2,0.1,64.8,0.1C-412.9-370.7-412.9-370.4-413.7-370.2z"/>
		<path class="st1" d="M-449.5-272c6.8-0.7,12.2-3.9,16.9-8.6c14.2-14.2,28.3-28.5,42.5-42.6c4.3-4.2,5.7-9.9,8.4-14.9
			c0,21.3-0.1,42.5,0.1,63.8c0,2.8-0.6,3.3-3.3,3.3c-21.6-0.1-43.2-0.1-64.8-0.1C-450.3-271.5-450.2-271.8-449.5-272z"/>
		<path class="st2" d="M-382.5-346.2c-1.7-12.6-9.9-21.2-23.1-24c-0.7-0.2-0.8-0.5-0.1-0.9c7.2,0,14.3,0.1,21.5-0.1
			c2.2-0.1,2.6,0.4,2.6,2.6c-0.2,7.5-0.1,15-0.1,22.5C-382-345.4-382.3-345.4-382.5-346.2z"/>
		<path class="st1" d="M-481.6-295.1c1.4,0.7,1.2,2.3,1.6,3.5c3.1,9.6,9.4,15.8,18.9,18.9c1.2,0.4,2.7,0.2,3.5,1.6
			c-7.2,0-14.3-0.1-21.5,0.1c-2.2,0.1-2.6-0.4-2.6-2.6C-481.5-280.7-481.6-287.9-481.6-295.1z"/>
		<path class="st3" d="M-405.6-371.1c0,0.3,0,0.6,0.1,0.9c-2.7,0-5.4,0-8.2,0c0-0.3,0.1-0.6,0.1-0.9
			C-410.9-371.1-408.3-371.1-405.6-371.1z"/>
		<path class="st4" d="M-382.5-346.2c0.3,0,0.6,0,0.9,0.1c0,2.3,0,4.7,0,7C-383.3-341.3-382.4-343.8-382.5-346.2z"/>
		<path class="st4" d="M-481.6-303.1c1.5,2.3,1.5,4.7,0,7C-481.6-298.4-481.6-300.8-481.6-303.1z"/>
		<path class="st4" d="M-449.5-272c0,0.3-0.1,0.6-0.1,0.9c-2.3,0-4.7,0-7,0C-454.4-272.8-451.9-271.9-449.5-272z"/>
		<path class="st1" d="M-409.9-362.9c7.8,0.3,14.2,3.8,17.9,11.1c3.7,7.5,3.2,15.1-2.3,21.5c-5.3,6.2-11.5,11.6-17.1,17.5
			c-2.1,2.2-3.1,0.5-4.4-0.8c-5.3-5.3-10.7-10.5-15.8-15.9c-2.4-2.5-3.9-2.6-6.3-0.1c-10,10.3-20.2,20.3-30.3,30.4
			c-0.9,0.9-1.7,2.6-3.1,2.1c-1.7-0.7-1.1-2.6-1-4c0.7-5.8,3.3-10.8,7.4-14.9c13.2-13.4,26.6-26.7,39.8-40
			C-421.1-360.2-416.1-362.6-409.9-362.9z"/>
	</g>
</g>
</svg>
