<?xml version="1.0" encoding="utf-8"?>
<!-- Generator: Adobe Illustrator 19.1.0, SVG Export Plug-In . SVG Version: 6.00 Build 0)  -->
<svg version="1.1" id="Layer_1" xmlns="http://www.w3.org/2000/svg" xmlns:xlink="http://www.w3.org/1999/xlink" x="0px" y="0px"
	 viewBox="0 0 108 109" style="enable-background:new 0 0 108 109;" xml:space="preserve">
<style type="text/css">
	.st0{fill:#9098D3;}
</style>
<path class="st0" d="M91.2,103.8H16.8c-0.5,0-0.9-0.4-0.9-0.9V87.4c0-0.5,0.4-0.9,0.9-0.9h74.3c0.5,0,0.9,0.4,0.9,0.9v15.5
	C92.1,103.4,91.7,103.8,91.2,103.8z"/>
<path class="st0" d="M79.1,82.5H26.5c-1.1,0-2-1.9-2-3l7-44.9c2.4-6.6,7.4-7.9,12.9-7.9h18.3c8.9,0,13.5,6.2,13.5,8.9l7,42.9
	C83.1,81.2,81.9,82.5,79.1,82.5z"/>
<path class="st0" d="M68.1,17.5L68.1,17.5c-0.7-0.3-1-1.2-0.7-1.9l4.2-9.3c0.3-0.7,1.2-1,1.9-0.7v0c0.7,0.3,1,1.2,0.7,1.9L70,16.8
	C69.7,17.5,68.9,17.8,68.1,17.5z"/>
<path class="st0" d="M82.4,29.5L82.4,29.5c-0.5-0.6-0.3-1.5,0.3-2l8.3-5.9c0.6-0.5,1.5-0.3,2,0.3v0c0.5,0.6,0.3,1.5-0.3,2l-8.3,5.9
	C83.7,30.3,82.8,30.1,82.4,29.5z"/>
<path class="st0" d="M89,48.2L89,48.2c-0.2-0.7,0.2-1.5,1-1.8l9.8-2.9c0.7-0.2,1.5,0.2,1.8,1v0c0.2,0.7-0.2,1.5-1,1.8l-9.8,2.9
	C90,49.4,89.2,48.9,89,48.2z"/>
<path class="st0" d="M38.5,17L38.5,17c0.7-0.3,1-1.2,0.7-1.9l-4.2-9.3c-0.3-0.7-1.2-1-1.9-0.7v0c-0.7,0.3-1,1.2-0.7,1.9l4.2,9.3
	C36.9,17,37.8,17.3,38.5,17z"/>
<path class="st0" d="M24.2,29L24.2,29c0.5-0.6,0.3-1.5-0.3-2l-8.3-5.9c-0.6-0.5-1.5-0.3-2,0.3l0,0c-0.5,0.6-0.3,1.5,0.3,2l8.3,5.9
	C22.9,29.8,23.8,29.6,24.2,29z"/>
<path class="st0" d="M17.6,47.7L17.6,47.7c0.2-0.7-0.2-1.5-1-1.8l-9.8-2.9c-0.7-0.2-1.5,0.2-1.8,1l0,0c-0.2,0.7,0.2,1.5,1,1.8
	l9.8,2.9C16.6,48.9,17.4,48.4,17.6,47.7z"/>
</svg>
