<?xml version="1.0" encoding="utf-8"?>
<!-- Generator: Adobe Illustrator 19.1.1, SVG Export Plug-In . SVG Version: 6.00 Build 0)  -->
<svg version="1.1" id="Layer_1" xmlns="http://www.w3.org/2000/svg" xmlns:xlink="http://www.w3.org/1999/xlink" x="0px" y="0px"
	 viewBox="-12 -10 125 125" style="enable-background:new 0 -2 100 105;" xml:space="preserve">
<style type="text/css">
	.st0_apartment{fill:currentColor;}
</style>
<polyline class="st0_apartment" points="3.8,17.2 50,17.2 26.6,-1.3 "/>
<polyline class="st0_apartment" points="49.3,17.2 95.8,17.2 72.5,-1.3 "/>
<path class="st0_apartment" d="M95.5,101.1H4.2c-0.4,0-0.7-0.3-0.7-0.7V17.9c0-0.4,0.3-0.7,0.7-0.7h91.4c0.4,0,0.7,0.3,0.7,0.7v82.5
	C96.3,100.8,95.9,101.1,95.5,101.1z M24.1,35.1v-6.2c0-0.4-0.3-0.7-0.7-0.7h-6.2c-0.4,0-0.7,0.3-0.7,0.7v6.2c0,0.4,0.3,0.7,0.7,0.7
	h6.2C23.8,35.8,24.1,35.5,24.1,35.1z M24.1,52.7v-6.2c0-0.4-0.3-0.7-0.7-0.7h-6.2c-0.4,0-0.7,0.3-0.7,0.7v6.2c0,0.4,0.3,0.7,0.7,0.7
	h6.2C23.8,53.4,24.1,53.1,24.1,52.7z M24.1,89.1V83c0-0.4-0.3-0.7-0.7-0.7h-6.2c-0.4,0-0.7,0.3-0.7,0.7v6.2c0,0.4,0.3,0.7,0.7,0.7
	h6.2C23.8,89.9,24.1,89.5,24.1,89.1z M24.1,71.4v-6.2c0-0.4-0.3-0.7-0.7-0.7h-6.2c-0.4,0-0.7,0.3-0.7,0.7v6.2c0,0.4,0.3,0.7,0.7,0.7
	h6.2C23.8,72.2,24.1,71.9,24.1,71.4z M43.4,35.1v-6.2c0-0.4-0.3-0.7-0.7-0.7h-6.2c-0.4,0-0.7,0.3-0.7,0.7v6.2c0,0.4,0.3,0.7,0.7,0.7
	h6.2C43.1,35.8,43.4,35.5,43.4,35.1z M43.4,52.7v-6.2c0-0.4-0.3-0.7-0.7-0.7h-6.2c-0.4,0-0.7,0.3-0.7,0.7v6.2c0,0.4,0.3,0.7,0.7,0.7
	h6.2C43.1,53.4,43.4,53.1,43.4,52.7z M43.4,89.1V83c0-0.4-0.3-0.7-0.7-0.7h-6.2c-0.4,0-0.7,0.3-0.7,0.7v6.2c0,0.4,0.3,0.7,0.7,0.7
	h6.2C43.1,89.9,43.4,89.5,43.4,89.1z M43.4,71.4v-6.2c0-0.4-0.3-0.7-0.7-0.7h-6.2c-0.4,0-0.7,0.3-0.7,0.7v6.2c0,0.4,0.3,0.7,0.7,0.7
	h6.2C43.1,72.2,43.4,71.9,43.4,71.4z M65.1,35.2V29c0-0.4-0.3-0.7-0.7-0.7h-6.2c-0.4,0-0.7,0.3-0.7,0.7v6.2c0,0.4,0.3,0.7,0.7,0.7
	h6.2C64.8,35.9,65.1,35.6,65.1,35.2z M65.1,52.8v-6.2c0-0.4-0.3-0.7-0.7-0.7h-6.2c-0.4,0-0.7,0.3-0.7,0.7v6.2c0,0.4,0.3,0.7,0.7,0.7
	h6.2C64.8,53.6,65.1,53.2,65.1,52.8z M65.1,89.2v-6.2c0-0.4-0.3-0.7-0.7-0.7h-6.2c-0.4,0-0.7,0.3-0.7,0.7v6.2c0,0.4,0.3,0.7,0.7,0.7
	h6.2C64.8,90,65.1,89.7,65.1,89.2z M65.1,71.6v-6.2c0-0.4-0.3-0.7-0.7-0.7h-6.2c-0.4,0-0.7,0.3-0.7,0.7v6.2c0,0.4,0.3,0.7,0.7,0.7
	h6.2C64.8,72.3,65.1,72,65.1,71.6z M84.6,35.1v-6.2c0-0.4-0.3-0.7-0.7-0.7h-6.2c-0.4,0-0.7,0.3-0.7,0.7v6.2c0,0.4,0.3,0.7,0.7,0.7
	h6.2C84.3,35.8,84.6,35.5,84.6,35.1z M84.6,52.7v-6.2c0-0.4-0.3-0.7-0.7-0.7h-6.2c-0.4,0-0.7,0.3-0.7,0.7v6.2c0,0.4,0.3,0.7,0.7,0.7
	h6.2C84.3,53.4,84.6,53.1,84.6,52.7z M84.6,89.1V83c0-0.4-0.3-0.7-0.7-0.7h-6.2c-0.4,0-0.7,0.3-0.7,0.7v6.2c0,0.4,0.3,0.7,0.7,0.7
	h6.2C84.3,89.9,84.6,89.5,84.6,89.1z M84.6,71.4v-6.2c0-0.4-0.3-0.7-0.7-0.7h-6.2c-0.4,0-0.7,0.3-0.7,0.7v6.2c0,0.4,0.3,0.7,0.7,0.7
	h6.2C84.3,72.2,84.6,71.9,84.6,71.4z"/>
</svg>
