<?xml version="1.0" encoding="utf-8"?>
<!-- Generator: Adobe Illustrator 19.1.0, SVG Export Plug-In . SVG Version: 6.00 Build 0)  -->
<svg version="1.1" id="Layer_1" xmlns="http://www.w3.org/2000/svg" xmlns:xlink="http://www.w3.org/1999/xlink" x="0px" y="0px"
	 viewBox="-455 257 48 48" style="enable-background:new -455 257 48 48;" xml:space="preserve">
<style type="text/css">
	.st0_city{fill:currentColor;}
	.st1_city{fill:none;}
</style>
<path class="st0_city" d="M-425,279v-12l-6-6l-6,6v4h-12v28h36v-20H-425z M-441,295h-4v-4h4V295z M-441,287h-4v-4h4V287z M-441,279h-4v-4
	h4V279z M-429,295h-4v-4h4V295z M-429,287h-4v-4h4V287z M-429,279h-4v-4h4V279z M-429,271h-4v-4h4V271z M-417,295h-4v-4h4V295z
	 M-417,287h-4v-4h4V287z"/>
<path class="st1_city" d="M-455,257h48v48h-48V257z"/>
</svg>
