<?xml version="1.0" encoding="utf-8"?>
<!-- Generator: Adobe Illustrator 19.1.1, SVG Export Plug-In . SVG Version: 6.00 Build 0)  -->
<svg version="1.1" id="Layer_1" xmlns="http://www.w3.org/2000/svg" xmlns:xlink="http://www.w3.org/1999/xlink" x="0px" y="0px"
	 viewBox="405 -255 140 140" style="enable-background:new 405 -255 140 140;" xml:space="preserve">
<style type="text/css">
	.st0_bread{fill:currentColor;}
</style>
<g>
	<path class="st0_bread" d="M440.2-180.6c0.7-10.4,9.5-17.2,18.8-14.9c6.4,1.6,12.6,3.6,19,5.1c2.3,0.5,5.7,1.5,6.7-1.1
		c1.1-3-2.2-4.4-4.5-5.5c-7-3.5-14.2-6-22.6-4.2c-0.2-3.2,0.8-6.1,3.4-7.5c5.9-3.2,12-6,19-4.3c5.6,1.4,10.9,3.6,16.7,4.1
		c1.7,0.1,4.2,0.7,4.9-1.3c0.8-2.5-1.9-3.2-3.5-4c-5.6-2.9-11.6-4.4-18.9-3.7c1.9-3.6,4-6.4,7-6.5c7.9-0.3,14.8-4.4,22.6-4.8
		c6.3-0.4,11.7,1.3,16.3,5.4c3.4,3,3.3,6.9,1.9,10.9c-3.2,9.2-9.4,16.6-15.7,23.7c-15,16.9-30.8,32.9-48.6,46.9
		c-4.8,3.8-9.8,7.2-15.8,9c-5.6,1.6-9.1,0.3-12.2-4.7c-4.3-6.9-4.2-14.3-2.5-21.9c0.1-0.5,0.3-0.9,0.4-1.4
		c3.7-15,3.7-14.9,18.6-12.3c3.1,0.5,6.2,0.4,9.3,0.5c1.1,0,2.5,0.2,3.1-1.1c0.7-1.6-0.8-2.4-1.8-3.1
		C455.4-181.7,448.4-183.9,440.2-180.6z"/>
</g>
</svg>
