<?xml version="1.0" encoding="utf-8"?>
<!-- Generator: Adobe Illustrator 19.1.1, SVG Export Plug-In . SVG Version: 6.00 Build 0)  -->
<svg version="1.1" id="Layer_1" xmlns="http://www.w3.org/2000/svg" xmlns:xlink="http://www.w3.org/1999/xlink" x="0px" y="0px"
	 viewBox="10.8 0 89.2 100" style="enable-background:new 10.8 0 89.2 100;" xml:space="preserve">
<style type="text/css">
	.st0_twomeals{fill:currentColor;}
</style>
<g>
	<path class="st0_twomeals" d="M86,87.3l-26.1,0.4c-0.4,0-0.3-0.3-0.3-0.8l4.4-3.9c0-0.4,0.3-0.8,0.8-0.8H86c0.4,0,0.8,0.3,0.8,0.8v3.5
		C86.8,86.9,86.4,87.3,86,87.3z"/>
	<path class="st0_twomeals" d="M77.6,92.6L77.6,92.6C77.5,92.6,77.5,92.5,77.6,92.6L77.6,92.6C77.5,92.5,77.5,92.5,77.6,92.6L77.6,92.6
		C77.6,92.5,77.6,92.5,77.6,92.6L77.6,92.6C77.6,92.5,77.6,92.6,77.6,92.6z"/>
	<path class="st0_twomeals" d="M79.2,27.8H66.6c-2.7,0-4.8-2.2-4.8-4.8v-4.2c0-2.7,2.2-4.8,4.8-4.8h12.6c2.7,0,4.8,2.2,4.8,4.8V23
		C84,25.6,81.8,27.8,79.2,27.8z M79.5,20.1L79.5,20.1c0-1.3-1.1-2.3-2.3-2.3h-8.1c-1.3,0-2.3,1.1-2.3,2.3v0c0,1.3,1.1,2.3,2.3,2.3
		h8.1C78.4,22.5,79.5,21.4,79.5,20.1z"/>
	<path class="st0_twomeals" d="M63.4,25l3.2,1.2c0.5,0.2,0.7,0.7,0.6,1.2l-5,12C62,40,61.7,39.7,61,40l-4.2,0.8c-0.5-0.2-0.7-0.7-0.6-1.2
		l6-14C62.4,25.1,63,24.8,63.4,25z"/>
	<path class="st0_twomeals" d="M89.4,44.3L87.7,45c-1,0.4-2.1-0.1-2.4-1l-6.4-16.1c-0.4-1,0.1-2.1,1-2.4l1.7-0.7c1-0.4,2.1,0.1,2.4,1
		l6.4,16.1C90.8,42.8,90.4,43.9,89.4,44.3z"/>
	<path class="st0_twomeals" d="M88.7,81.7l-1.8,0c-1,0-1.9-0.8-1.9-1.9l0-36.6c0-1,0.8-1.9,1.9-1.9l1.8,0c1,0,1.9,0.8,1.9,1.9l0,36.6
		C90.6,80.9,89.8,81.7,88.7,81.7z"/>
	<path class="st0_twomeals" d="M85.3,79.3l-1.3,4c-0.5,1.4-1.4,3.1,0,3.5l2,0.4c0.9,0.1,2.6-0.8,3.1-2.2l1.3-4c0.7-3.5-0.2-3.7-1.7-3.4h0
		C87.3,77.1,85.7,77.9,85.3,79.3z"/>
</g>
<g>
	<g>
		<path class="st0_twomeals" d="M24,62.2C21.1,72.8,24.1,91,37,89.2c9.6,7.8,22.1-5.9,25-16.4c2.8-10.1-4.3-18.3-14.6-16.6
			c-0.8-8.5-2.4-12.8-2.4-12.8c-0.2-0.5-0.8-0.9-1.4-0.8l-3.8,0.7c-0.5,0.1-0.7,0.5-0.4,1c0,0,2.2,2.9,3.2,4.9l0,0
			c1.2,2.4,1.9,4.8,2.4,6.5C36.2,48.3,26.8,52.1,24,62.2z"/>
		<path class="st0_twomeals" d="M55.8,52.1c3.7-2.1,4.4-6.3,4.4-6.3c0.1-0.5-0.2-1.1-0.8-1.3c0,0-4-1.5-7.7,0.6c-3.7,2.1-4.4,6.3-4.4,6.3
			c-0.1,0.5,0.2,1.1,0.8,1.3C48.1,52.7,52.1,54.2,55.8,52.1z"/>
	</g>
</g>
</svg>
