<?xml version="1.0" encoding="utf-8"?>
<!-- Generator: Adobe Illustrator 19.1.1, SVG Export Plug-In . SVG Version: 6.00 Build 0)  -->
<svg version="1.1" id="Layer_1" xmlns="http://www.w3.org/2000/svg" xmlns:xlink="http://www.w3.org/1999/xlink" x="0px" y="0px"
	 viewBox="-283 372 50 50" style="enable-background:new -283 372 50 50;" xml:space="preserve">
<style type="text/css">
	.st0_iphone{fill:currentColor;}
	.st1_iphone{fill:none;}
</style>
<path class="st0_iphone" d="M-250,375h-16c-2.8,0-5,2.2-5,5v34c0,2.8,2.2,5,5,5h16c2.8,0,5-2.2,5-5v-34C-245,377.2-247.2,375-250,375z
	 M-258,417c-1.7,0-3-1.3-3-3s1.3-3,3-3s3,1.3,3,3S-256.3,417-258,417z M-249,409h-18v-28h18V409z"/>
<path class="st1_iphone" d="M-281,373h48v48h-48V373z"/>
</svg>
