<?xml version="1.0" encoding="utf-8"?>
<!-- Generator: Adobe Illustrator 19.1.0, SVG Export Plug-In . SVG Version: 6.00 Build 0)  -->
<svg version="1.1" id="Layer_1" xmlns="http://www.w3.org/2000/svg" xmlns:xlink="http://www.w3.org/1999/xlink" x="0px" y="0px"
	 viewBox="0 0 960 560" style="enable-background:new 0 0 960 560;" xml:space="preserve">
<style type="text/css">
	.st0{fill:#FEFEFE;}
	.st1{fill:#E3E5F3;}
	.st2{fill:#E2E4F3;}
	.st3{fill:#8F97D2;}
	.st4{fill:#9097D2;}
</style>
<g>
	<g>
		<path class="st0" d="M431,278c0-14.7,0.1-29.3-0.1-44c0-2.5,0.6-3.1,3.1-3.1c14.7,0.1,29.3,0.1,44,0.1c0.3,0.5,0.3,0.9-0.1,1.3
			c-1.4,1-3.1,1.1-4.7,1.4c-21.8,4.6-35.5,18.5-39.7,40.3c-0.3,1.3-0.3,2.7-1.1,3.8C431.9,278.3,431.5,278.3,431,278z"/>
		<path class="st0" d="M484,231c14.7,0,29.3,0.1,44-0.1c2.5,0,3.1,0.6,3.1,3.1c-0.1,14.7-0.1,29.3-0.1,44c-0.5,0.3-0.9,0.3-1.3-0.1
			c-1-1.4-0.9-3.2-1.2-4.8c-4.2-20.8-18.3-34.9-39.1-39.2c-1.8-0.4-3.7-0.5-5.2-1.5C483.7,231.9,483.7,231.5,484,231z"/>
		<path class="st0" d="M478,331c-14.7,0-29.3-0.1-44,0.1c-2.5,0-3.1-0.6-3.1-3.1c0.1-14.7,0.1-29.3,0.1-44c0.5-0.3,0.9-0.3,1.3,0.1
			c0.8,1.1,0.8,2.5,1.1,3.8c4.2,22.1,18.5,36.4,40.7,40.7c1.3,0.3,2.7,0.3,3.8,1.1C478.3,330.1,478.3,330.5,478,331z"/>
		<path class="st0" d="M531,284c0,14.7-0.1,29.3,0.1,44c0,2.5-0.6,3.1-3.1,3.1c-14.7-0.1-29.3-0.1-44-0.1c-0.3-0.5-0.3-0.9,0.1-1.3
			c1.1-0.8,2.5-0.8,3.8-1.1c22.1-4.2,36.4-18.5,40.7-40.7c0.3-1.3,0.3-2.7,1.1-3.8C530.1,283.7,530.5,283.7,531,284z"/>
		<path class="st1" d="M484,231c0,0.3,0,0.6,0,0.9c-2,1.8-4.1,1.8-6.1,0c0-0.3,0-0.6,0-0.9C480,231,482,231,484,231z"/>
		<path class="st2" d="M431.8,284.1l-0.4,0L431,284c0-2,0-4,0-6c0.3-0.1,0.6-0.1,0.8-0.1C433.7,280,433.7,282,431.8,284.1z"/>
		<path class="st2" d="M531,284c-0.3,0-0.6,0.1-0.9,0c-1.8-2-1.8-4.1,0-6.1c0.3,0,0.6,0,0.9,0C531,280,531,282,531,284z"/>
		<path class="st2" d="M484,330.1c0,0.3,0,0.6,0,0.9c-2,0-4,0-6,0c0-0.3,0-0.6,0-0.9C480,328.3,482,328.3,484,330.1z"/>
		<path class="st3" d="M484,330.1c-2,0-4.1,0-6.1,0c-25-1.7-44.2-20.9-46.1-46.1c0-2,0-4.1,0-6.1c1.9-25.2,20.9-44.2,46.1-46.1
			c2,0,4.1,0,6.1,0c25.2,1.9,44.4,21.1,46.1,46.1c0,2,0,4.1,0,6.1C528.4,309.1,509.1,328.4,484,330.1z"/>
		<path class="st0" d="M514.8,304.7c-1.4-2.8-11.2-2.5-15.8,0.2c-3.6,2.1-8.3,13.2-6.5,15.8c-7.7,2.5-15.2,2.5-22.8,0
			c1.8-2.7-2.6-14.2-6.6-15.7c-4.4-1.7-9.3-2.4-14-3.3c-1.4-0.3-0.6,2-1.9,2.8c-4.4-5.7-6.8-12-7.2-19.2c-0.1-1.4-0.9-3.9,2.2-2
			c0.9,0.5,1.4-0.6,1.9-1.1c0.9-1,1.5-2.3,2.6-3c8.2-5.5,5.8-13.5,5.3-21.2c-0.2-2.7-2.6-1.2-3.7-2.3c4.9-6.4,11.2-10.8,18.6-13.8
			c0.3,3.4,9.6,9.2,14.1,9.3c4.5,0,13.9-5.9,14.1-9.3c7.5,3,13.7,7.4,19.1,14.4c-3.6-0.6-4.6,1-4.2,3.7c0.1,0.5,0.1,1,0,1.5
			c-3.5,9.3,2.5,14.9,7.9,20.7c0.3,0.4,0.8,1.1,1.1,1c6.2-1.3,3,3.5,2.8,5.1C521,294.1,518.9,299.5,514.8,304.7z"/>
		<path class="st4" d="M481.3,297.8c-13.5-0.3-10,2.1-14.4-10.6c-3.5-10.1-3.4-10.1,5.5-16.4c8.5-6,8.5-6,16.9-0.1
			c9,6.4,9,6.4,5.6,16.8c-0.1,0.2-0.1,0.3-0.1,0.5C490.5,299.6,493.9,297.5,481.3,297.8z"/>
	</g>
</g>
</svg>
