<?xml version="1.0" encoding="utf-8"?>
<!-- Generator: Adobe Illustrator 19.1.1, SVG Export Plug-In . SVG Version: 6.00 Build 0)  -->
<svg version="1.1" id="Layer_1" xmlns="http://www.w3.org/2000/svg" xmlns:xlink="http://www.w3.org/1999/xlink" x="0px" y="0px"
	 viewBox="861.2 -8 100.2 124" style="enable-background:new 861.2 -8 100.2 124;" xml:space="preserve">
<style type="text/css">
	.st0_playfootball{fill:none;}
	.st1_playfootball{fill:currentColor;}
	.st2_playfootball{fill:currentColor;}
</style>
<g>
	<g>
		<path class="st0_playfootball" d="M923,101c-9.3,0-18.7,0-28,0c10.2-18.5,17.5-38.2,26.3-57.4c1.6-3.6,3.6-4.5,7.4-2.8c11,5,11.6,4.8,20.2-4.1
			c0.8-0.8,1.7-1.6,2.3-2.6c0.3-0.4,0.4-0.9,0-1.8c-2.8,0.2-4.9,2.3-7.1,3.7c-3.5,2.2-6.7,2.3-10.3,0.3c-7-3.9-13.9-7.9-20.9-11.6
			c-3.4-1.8-6.7-2.4-10.5-1.8c-7.9,1.3-15.8,2.4-23.7,3.7c-2.4,0.4-5,0.4-7,2.5c1.5,2.1,3.7,1.6,5.5,1.6c6.2,0.1,12.3-0.1,18.5,0.1
			c5.1,0.1,5.9,1.4,4,6.2c-3.4,8.5-7.5,16.7-10.6,25.3c-1.2,3.3-2.3,6.6-2.4,10.1c0,1.2,0.2,2.4,1.4,2.9c1.3,0.5,2.2-0.4,3-1.3
			c0.9-1,1.6-2.1,2.3-3.3c1.4-2.4,2.8-4.9,4.4-7.3c1.2-1.7,2.3-4.6,4.7-3.6c2.7,1.1,0.9,3.8,0.4,5.7c-1.7,7-4.2,13.7-6.6,20.4
			c-1.7,4.9-3.3,9.7-2.1,15c-10.1,0-20.3-0.1-30.4,0.1c-2,0-2.7-0.2-2.6-2.5c0.1-31.8,0.1-63.5,0-95.3c0-3.2,1.7-2.3,3.2-2.3
			c18.6,0,37.2,0,55.9,0c0.2,2.4-2.1,2.3-3.3,3.1c-3.2,2.2-4,5.2-3,8.8c1,3.5,3.5,5.2,7.1,5.2c3.6,0,6-2.1,7-5.4
			c1.1-3.6-0.3-6.5-3.5-8.6c-1.2-0.8-3.5-0.7-3.3-3.1c12.5,0,25,0.1,37.5-0.1c2.2,0,2.6,0.4,2.6,2.6c-0.1,31.7-0.1,63.3,0,95
			c0,2.1-0.4,2.6-2.6,2.6c-11.2-0.1-22.3-0.1-33.5-0.1c-0.2-2.4,2.1-2.3,3.3-3.1c3.6-2.6,4.5-7.6,1.9-11c-2.4-3.1-7.6-3.5-10.8-0.8
			c-3.3,2.9-3.1,7.6,0.3,11C920.9,98.3,923.3,98.6,923,101z"/>
		<path class="st1_playfootball" d="M894,101c-2.4-2.7-2.3-5.6-1.2-8.8c3-9.2,6-18.3,8.9-27.5c0.4-1.4,1.3-2.7,0.7-4.7c-3.5,2.2-4.5,6-6.6,9
			c-1.4,2-2.6,4.3-4,6.3c-1.1,1.6-2.5,2.8-4.6,2c-2-0.8-2.5-2.5-2.3-4.5c0.8-7.2,3.7-13.8,6.5-20.3c2.7-6.6,5.7-13,8.9-20.4
			c-8.2,0-15.7,0.1-23.3,0c-2.8-0.1-7.2,1.2-7.5-2.6c-0.3-3.8,4.3-3.3,7.1-3.8c9.3-1.6,18.7-3.1,28-4.5c2.9-0.4,5.6,0.4,8.1,1.9
			c7.1,4,14.3,7.8,21.3,12c3.4,2,6.2,2.6,9.5-0.1c1.9-1.6,4.2-2.7,6.3-4c1.3-0.8,2.5-0.9,3.5,0.3c0.9,1.1,0.6,2.2-0.2,3.2
			c-3.6,4.5-8,8.1-12.7,11.1c-3.2,2-6.3-0.9-9.3-2.2c-7.1-2.9-7-3-10.1,4.3c-6.8,15.5-13.7,31-20.5,46.6c-1.2,2.8-3,5.1-5.5,6.8
			C894.7,101,894.3,101,894,101z"/>
		<path class="st2_playfootball" d="M921,1c0.9,1.5,2.6,1.1,3.9,1.9c3.8,2.4,5.4,5.7,4.2,10.1c-1.1,4.2-4.2,6.5-8.3,6.5c-4.3,0-7.7-2.3-8.6-6.7
			c-0.9-4.2,0.4-7.8,4.5-10c1.1-0.6,2.7-0.2,3.4-1.7C920.3,1,920.7,1,921,1z"/>
		<path class="st2_playfootball" d="M923,101c-0.5-1.3-1.8-1.3-2.8-1.9c-4.1-2.5-5.4-6.3-4-10.7c1.3-4.1,4.6-5.9,8.9-5.6c4.4,0.3,7.2,2.6,7.9,6.9
			c0.8,4.6-1,8.1-5.5,10c-0.9,0.4-2.1,0.1-2.5,1.3C924.3,101,923.7,101,923,101z"/>
	</g>
</g>
</svg>
